<?xml version="1.0" standalone="no"?>
<!DOCTYPE svg PUBLIC "-//W3C//DTD SVG 20010904//EN"
 "http://www.w3.org/TR/2001/REC-SVG-20010904/DTD/svg10.dtd">
<svg version="1.0" xmlns="http://www.w3.org/2000/svg"
 width="130.000000pt" height="130.000000pt" viewBox="0 0 130.000000 130.000000"
 preserveAspectRatio="xMidYMid meet">
<metadata>
Created by potrace 1.11, written by Peter Selinger 2001-2013
</metadata>
<g transform="translate(0.000000,130.000000) scale(0.100000,-0.100000)"
fill="#000000" stroke="none">
<path d="M654 1221 c-41 -5 -61 -14 -96 -46 -29 -25 -48 -52 -52 -72 -7 -33
-19 -42 -31 -23 -8 13 -109 13 -155 0 -19 -5 -56 -28 -82 -50 -42 -36 -48 -47
-64 -115 -15 -63 -16 -80 -5 -112 27 -82 46 -106 106 -144 58 -35 63 -36 130
-32 57 4 78 11 113 35 l43 30 37 -24 c20 -14 58 -30 85 -38 l47 -13 0 -52 c0
-29 -14 -124 -30 -211 -32 -167 -32 -214 0 -214 38 0 70 22 70 49 0 14 11 84
25 156 17 86 25 164 25 232 l0 103 56 0 c48 0 63 5 103 34 75 56 88 75 106
161 l17 81 -31 74 c-30 71 -34 77 -95 113 -50 28 -76 37 -113 37 -33 1 -60 8
-88 25 -22 14 -47 24 -55 24 -8 -1 -38 -5 -66 -8z"/>
</g>
</svg>
